<svg id="Layer_1" data-name="Layer 1" xmlns="http://www.w3.org/2000/svg" viewBox="0 0 93 29.18"><defs><style>.cls-1{fill:#01b9f4;}.cls-2{fill:#022e72;}</style></defs><title>Artboard 14DTR</title><path class="cls-1" d="M93,28.53a1.68,1.68,0,0,1-1.39.47c-1.08,0-2.17,0-3.25,0S87,28.73,87,27.63Q87,20,87,12.29c0-1.26-.55-1.81-1.78-1.8s-1.8.55-1.8,1.79q0,7.71,0,15.42c0,1.09-.23,1.32-1.3,1.32H78.68c-1,0-1.3-.22-1.31-1.25,0-3.15,0-6.3,0-9.45,0-2,0-4.08,0-6.12,0-1.15-.55-1.67-1.73-1.67s-1.83.5-1.83,1.65q0,7.71,0,15.42c0,1.17-.22,1.4-1.4,1.4H68.89c-.81,0-1.13-.31-1.13-1.12q0-11,0-22.08c0-.86.31-1.15,1.18-1.15H72.5c1,0,1.16.17,1.33,1.17a6.84,6.84,0,0,1,3.24-1.33,6.11,6.11,0,0,1,4.82,1.45c.36.31.54.27.88,0A6.21,6.21,0,0,1,92.86,9.15c0,.06.09.11.14.16Z"/><path class="cls-2" d="M32.84,18.61q0,3.87,0,7.75A2.4,2.4,0,0,1,30.24,29q-3.76,0-7.51,0a5.36,5.36,0,0,1-5.67-5.47c-.06-1.78-.06-3.56,0-5.34a5.56,5.56,0,0,1,5-5.44,29.65,29.65,0,0,1,3.63-.12c.81,0,1-.26,1-1.08s-.3-1.1-1.05-1.11c-1.65,0-3.31,0-5,0-.91,0-1.22-.3-1.23-1.19,0-1.16,0-2.32,0-3.49a.9.9,0,0,1,1-1c2.3,0,4.6-.16,6.89.08,3.69.38,5.49,2.43,5.5,6.17C32.84,13.5,32.84,16.05,32.84,18.61Zm-9.71,2.26c0,.54,0,1.08,0,1.62,0,.8.4,1,1.44,1.08,1.75,0,2.14,0,2.21-1.08s0-2.16,0-3.24c0-.82-.41-1-1.71-1-1.54,0-1.9.18-1.94,1C23.1,19.79,23.12,20.33,23.12,20.87Z"/><path class="cls-2" d="M50.66,14.56q0,4.11,0,8.21a5.91,5.91,0,0,1-6.29,6.31H38.1c-1,0-1.28-.24-1.29-1.27,0-1.19,0-2.38,0-3.56,0-.89.28-1.15,1.16-1.16h5c1.23,0,1.68-.29,1.66-1s-.44-.92-1.64-.95A17.12,17.12,0,0,1,39.7,21,5.79,5.79,0,0,1,35,15c0-3,0-6,0-9.06,0-.94.32-1.24,1.26-1.25H39.7C40.7,4.67,41,5,41,6c0,2.53,0,5.06,0,7.59,0,1.26.23,1.48,1.49,1.49,2.14,0,2.15,0,2.15-2.16q0-3.52,0-7c0-.95.3-1.25,1.24-1.25h3.56c.88,0,1.21.34,1.21,1.22Q50.67,10.22,50.66,14.56Z"/><path class="cls-2" d="M0,16.91q0-5.5,0-11c0-1,.27-1.25,1.22-1.25,2.89,0,5.78,0,8.67,0a5.4,5.4,0,0,1,5.73,5.73,53.29,53.29,0,0,1-.1,6.73,5.24,5.24,0,0,1-5.33,4.71c-1.14,0-2.27,0-3.41,0-.58,0-.8.11-.78.74.05,1.68,0,3.35,0,5C6,28.79,5.8,29,4.65,29H1.16C.21,29,0,28.81,0,27.83Q0,22.37,0,16.91Zm6-3.66c0,.08,0,.15,0,.23,0,.76-.33,1.8.15,2.21s1.52.11,2.31.1a1,1,0,0,0,1.1-1.1q0-1.43,0-2.86c0-.76-.38-1.11-1.15-1.13-.62,0-1.24,0-1.85,0-.42,0-.59.09-.57.55C6,11.91,6,12.58,6,13.25Z"/><path class="cls-1" d="M56.4,19.69c0-2.74,0-5.47,0-8.21,0-.66-.19-.85-.82-.79a13.91,13.91,0,0,1-1.55,0c-.68,0-1.06-.32-1.06-1,0-1.32,0-2.63,0-4a.92.92,0,0,1,1.05-1,5.57,5.57,0,0,0,5-2.79A4.12,4.12,0,0,1,60.88.13c.83-.34,1.39,0,1.41.89s0,1.91,0,2.87c0,.58.1.86.75.78a10.87,10.87,0,0,1,1.47,0,1,1,0,0,1,1.07,1q0,2,0,4a1,1,0,0,1-1,1h-.23c-.66.05-1.56-.3-1.91.15s-.11,1.28-.11,2q0,7.51,0,15c0,1.09-.23,1.33-1.3,1.33H57.68c-1,0-1.28-.24-1.28-1.27Q56.39,23.8,56.4,19.69Z"/></svg>